<svg id="Group_1343" data-name="Group 1343" xmlns="http://www.w3.org/2000/svg" width="301.557" height="276.506" viewBox="0 0 301.557 276.506">
  <path id="Path_3" data-name="Path 3" d="M443.185,345.6c-23.513-34.369-65.113-17.8-97.219-30.17-39.538-15.237-60.583-24.269-96.685,9.656-49.849,46.843-78.969,155.513-23.4,210.7,42.986,42.685,135.558,39.351,183.208,7.49C470.59,502.154,487.124,409.824,443.185,345.6Z" transform="translate(-188.488 -290.999)" fill="#f0f0f0"/>
  <path id="Path_4" data-name="Path 4" d="M488.225,484.875a68.374,68.374,0,0,0,.814-48.008c-2.278-6.326-5.529-12.429-6.242-19.115s2.007-14.416,8.294-16.8c7-2.657,14.966,2.784,17.795,9.715s1.921,14.749.967,22.174L534.513,381.3c2.119-4.43,4.313-8.964,7.865-12.356s8.808-5.449,13.465-3.888c5.767,1.932,8.661,8.79,8.068,14.845s-3.83,11.483-6.989,16.682l-24.494,40.321a48.62,48.62,0,0,1,31.738-24.387c8.224-1.878,19-.1,21.583,7.928,2.024,6.3-2.5,13.117-8.287,16.308s-12.594,3.8-19.081,5.08A88.669,88.669,0,0,0,501.6,480.576Z" transform="translate(-284.684 -284.435)" fill="#c9c9c9"/>
  <g id="Group_1318" data-name="Group 1318" transform="translate(212.465 99.68)">
    <path id="Path_5" data-name="Path 5" d="M501.825,471.378l-.9-1.307a78.316,78.316,0,0,0,26.922-32.046c2.176-4.768,3.9-9.833,5.567-14.733,1.277-3.754,2.6-7.636,4.12-11.38,4.324-10.641,9.668-18.061,16.336-22.682l.9,1.3c-6.407,4.439-11.566,11.627-15.771,21.974-1.5,3.7-2.818,7.561-4.088,11.294-1.68,4.937-3.417,10.04-5.626,14.88A79.9,79.9,0,0,1,501.825,471.378Z" transform="translate(-500.927 -389.23)" fill="#dbdbdb"/>
  </g>
  <g id="Group_1319" data-name="Group 1319" transform="translate(222.078 135.544)">
    <path id="Path_6" data-name="Path 6" d="M513.9,473.531l-.851-1.338c6.22-3.954,13.362-8.486,20.509-13.021,7.229-4.588,14.464-9.178,20.756-13.178,8.224-5.228,16.334-9.83,25.113-8.754l-.194,1.574c-8.259-1.012-16.1,3.451-24.069,8.519-6.292,4-13.527,8.591-20.757,13.179C527.263,465.046,520.121,469.577,513.9,473.531Z" transform="translate(-513.051 -437.082)" fill="#dbdbdb"/>
  </g>
  <path id="Path_7" data-name="Path 7" d="M257.466,448.7c3.592-8.866-2.668-18.719-10.014-24.846s-16.331-10.844-21.146-19.109c-2.411-4.137-3.579-8.876-5.667-13.187s-5.51-8.432-10.207-9.362c-7.652-1.515-14.466,6.652-14.5,14.452s4.522,14.806,9.166,21.073,9.711,12.7,10.967,20.4c1.433,8.787-1.575,19.862,5.567,25.177,6.239,4.643,16.571,1.158,21.8,6.916,3.34,3.675,2.826,9.283,3.75,14.162s5.7,10.178,10.076,7.821Z" transform="translate(-188.533 -289.799)" fill="#c9c9c9"/>
  <g id="Group_1320" data-name="Group 1320" transform="translate(18.179 108.11)">
    <path id="Path_8" data-name="Path 8" d="M270.422,474.064c-11.79,0-23.223-8.682-26.267-20.094-.351-1.318-.6-2.671-.849-3.979a31.242,31.242,0,0,0-1.575-6.139c-2.12-5.2-6.871-8.79-11.465-12.26-1.56-1.179-3.174-2.4-4.67-3.666a48.879,48.879,0,0,1-16.066-26.768l1.549-.335a47.286,47.286,0,0,0,15.542,25.894c1.463,1.241,3.057,2.445,4.6,3.611,4.765,3.6,9.693,7.32,11.978,12.927a32.945,32.945,0,0,1,1.666,6.445c.239,1.28.487,2.6.823,3.862,2.932,10.993,14.161,19.3,25.505,18.9l.055,1.585C270.973,474.059,270.7,474.064,270.422,474.064Z" transform="translate(-209.529 -400.824)" fill="#dbdbdb"/>
  </g>
  <path id="Path_9" data-name="Path 9" d="M252.565,500.341c5.9-2.481,7.055-11.012,3.773-16.509s-9.432-8.534-15.386-10.886-12.27-4.448-16.845-8.926c-4.382-4.291-6.623-10.242-9-15.894s-5.258-11.471-10.358-14.878-13.031-3.3-16.478,1.775c-4.3,6.33.863,14.879,6.815,19.689s13.423,9.126,15.173,16.576c1.264,5.383-.907,11.124.33,16.514,1.387,6.04,6.7,10.314,11.994,13.533s11.108,6.058,14.784,11.047,4.171,13.045-.844,16.685Z" transform="translate(-186.618 -305.763)" fill="#bababa"/>
  <g id="Group_1321" data-name="Group 1321" transform="translate(18.873 142.556)">
    <path id="Path_10" data-name="Path 10" d="M251.3,506.287c-.6-5.476-6.843-8.525-9.5-9.581-1.139-.454-2.337-.872-3.5-1.277-3.621-1.264-7.366-2.571-10.27-5.227-2.165-1.98-2.64-4.993-3.1-7.906a22.373,22.373,0,0,0-1.051-4.613,112.13,112.13,0,0,0-6.7-13.407,113.413,113.413,0,0,1-6.787-13.6l1.476-.58a112.186,112.186,0,0,0,6.7,13.407,113.13,113.13,0,0,1,6.787,13.6,23.838,23.838,0,0,1,1.141,4.944c.437,2.766.849,5.377,2.6,6.983,2.663,2.436,6.092,3.633,9.722,4.9,1.175.411,2.39.834,3.561,1.3,6.174,2.458,10,6.424,10.488,10.882Z" transform="translate(-210.404 -450.097)" fill="#c9c9c9"/>
  </g>
  <path id="Path_11" data-name="Path 11" d="M199.178,528.548c3.884,20.452,12.649,39.277,27.57,54.191,42.7,42.685,134.666,39.351,182,7.491,22.312-15.017,38.657-36.868,48.3-61.682Z" transform="translate(-189.207 -337.955)" fill="#e0e0e0"/>
  <path id="Path_12" data-name="Path 12" d="M486.246,492.961c.167-4.1.2-8.364,2.036-12.034s6.112-6.5,10-5.2c5.17,1.725,5.913,8.619,5.717,14.065l20.746-18.038c3.821-3.322,7.77-6.72,12.555-8.371s10.674-1.157,14.133,2.54c3.558,3.8,3.525,10.009,1.018,14.571s-7,7.707-11.664,10.009c-4.27,2.105-8.987,3.771-12.1,7.375s-3.6,10.039.444,12.546c4.594,2.846,11.3-1.214,15.768,1.824,3.673,2.5,3.152,8.473.121,11.717s-7.592,4.462-11.9,5.536l-28.2,7.03c-5.182,1.292-20.821,8.2-25.6,5.151-4.661-2.973,2.1-16.142,3.2-20.97A151.507,151.507,0,0,0,486.246,492.961Z" transform="translate(-283.65 -314.38)" fill="#b3b3b3"/>
  <g id="Group_1323" data-name="Group 1323" transform="translate(51.392)">
    <g id="Group_1322" data-name="Group 1322">
      <rect id="Rectangle_4" data-name="Rectangle 4" width="154.708" height="244.772" rx="25.811" transform="translate(19.587)" fill="#a5888a"/>
      <path id="Path_13" data-name="Path 13" d="M452.958,345.719V319.626H298.25v26.093a13.839,13.839,0,0,0,8.111-12.593,13.849,13.849,0,0,0,27.7,0,13.849,13.849,0,0,0,27.7,0,13.849,13.849,0,0,0,27.7,0,13.849,13.849,0,0,0,27.7,0A13.849,13.849,0,0,0,431,346.975h0a13.849,13.849,0,0,0,13.849-13.849A13.839,13.839,0,0,0,452.958,345.719Z" transform="translate(-278.663 -264.691)" fill="#926f73" opacity="0.4"/>
      <rect id="Rectangle_5" data-name="Rectangle 5" width="137.282" height="193.608" rx="3.035" transform="translate(28.3 29.973)" fill="#e0e0e0"/>
      <path id="Path_14" data-name="Path 14" d="M446.521,319.626H309.239v17.54a13.849,13.849,0,0,0,27.095-4.04,13.849,13.849,0,0,0,27.7,0,13.849,13.849,0,0,0,27.7,0,13.849,13.849,0,0,0,27.7,0,13.849,13.849,0,0,0,13.849,13.849h0a13.852,13.852,0,0,0,13.246-9.809Z" transform="translate(-280.939 -264.691)" fill="#f7d3c7"/>
      <path id="Path_15" data-name="Path 15" d="M414.427,262.059h-52.9a3.526,3.526,0,0,1-3.527-3.526h0a3.527,3.527,0,0,1,3.527-3.527h52.9a3.527,3.527,0,0,1,3.527,3.527h0A3.526,3.526,0,0,1,414.427,262.059Z" transform="translate(-291.039 -241.167)" fill="#daa095" opacity="0.4"/>
      <circle id="Ellipse_1" data-name="Ellipse 1" cx="3.328" cy="3.328" r="3.328" transform="translate(138.966 14.038)" fill="#daa095" opacity="0.4"/>
      <path id="Rectangle_6" data-name="Rectangle 6" d="M0,0H27.7a0,0,0,0,1,0,0V13.5A13.849,13.849,0,0,1,13.849,27.349h0A13.849,13.849,0,0,1,0,13.5V0A0,0,0,0,1,0,0Z" transform="translate(0 48.242)" fill="#f4eff4"/>
      <path id="Rectangle_7" data-name="Rectangle 7" d="M0,0H27.7a0,0,0,0,1,0,0V13.5A13.849,13.849,0,0,1,13.849,27.349h0A13.849,13.849,0,0,1,0,13.5V0A0,0,0,0,1,0,0Z" transform="translate(27.697 48.242)" fill="#daa095"/>
      <path id="Rectangle_8" data-name="Rectangle 8" d="M0,0H27.7a0,0,0,0,1,0,0V13.5A13.849,13.849,0,0,1,13.849,27.349h0A13.849,13.849,0,0,1,0,13.5V0A0,0,0,0,1,0,0Z" transform="translate(55.395 48.242)" fill="#f4eff4"/>
      <path id="Rectangle_9" data-name="Rectangle 9" d="M0,0H27.7a0,0,0,0,1,0,0V13.5A13.849,13.849,0,0,1,13.849,27.349h0A13.849,13.849,0,0,1,0,13.5V0A0,0,0,0,1,0,0Z" transform="translate(83.092 48.242)" fill="#daa095"/>
      <path id="Rectangle_10" data-name="Rectangle 10" d="M0,0H27.7a0,0,0,0,1,0,0V13.5A13.849,13.849,0,0,1,13.849,27.349h0A13.849,13.849,0,0,1,0,13.5V0A0,0,0,0,1,0,0Z" transform="translate(110.789 48.242)" fill="#f4eff4"/>
      <path id="Rectangle_11" data-name="Rectangle 11" d="M0,0H27.7a0,0,0,0,1,0,0V13.5A13.849,13.849,0,0,1,13.849,27.349h0A13.849,13.849,0,0,1,0,13.5V0A0,0,0,0,1,0,0Z" transform="translate(138.487 48.242)" fill="#daa095"/>
      <path id="Rectangle_12" data-name="Rectangle 12" d="M0,0H27.7a0,0,0,0,1,0,0V13.5A13.849,13.849,0,0,1,13.849,27.349h0A13.849,13.849,0,0,1,0,13.5V0A0,0,0,0,1,0,0Z" transform="translate(166.184 48.242)" fill="#f4eff4"/>
      <path id="Path_16" data-name="Path 16" d="M301.244,302.528h-27.7l28.3-27.175H324.96Z" transform="translate(-273.547 -245.381)" fill="#fffaff"/>
      <path id="Path_17" data-name="Path 17" d="M336.176,302.528h-27.7l23.715-27.175h19.792Z" transform="translate(-280.782 -245.381)" fill="#f7d3c7"/>
      <path id="Path_18" data-name="Path 18" d="M371.108,302.528h-27.7l15.81-27.175h19.792Z" transform="translate(-288.016 -245.381)" fill="#fffaff"/>
      <path id="Path_19" data-name="Path 19" d="M476.945,302.528h27.7l-28.3-27.175H453.229Z" transform="translate(-310.76 -245.381)" fill="#fffaff"/>
      <path id="Path_20" data-name="Path 20" d="M444.077,302.528h27.7L448.06,275.353H428.267Z" transform="translate(-305.591 -245.381)" fill="#f7d3c7"/>
      <path id="Path_21" data-name="Path 21" d="M411.21,302.528h27.7L423.1,275.353H403.305Z" transform="translate(-300.421 -245.381)" fill="#fffaff"/>
      <path id="Path_22" data-name="Path 22" d="M406.04,302.528h-27.7l7.905-27.175h11.887Z" transform="translate(-295.251 -245.381)" fill="#f7d3c7"/>
    </g>
    <rect id="Rectangle_13" data-name="Rectangle 13" width="36.128" height="35.966" rx="6.992" transform="translate(36.081 112.579)" fill="#e0e0e0"/>
    <path id="Path_82" data-name="Path 82" d="M6.992,0H114.728a6.992,6.992,0,0,1,6.992,6.992V33.07a6.992,6.992,0,0,1-6.992,6.992H6.992A6.992,6.992,0,0,1,0,33.07V6.992A6.992,6.992,0,0,1,6.992,0Z" transform="translate(36.081 149.885)" fill="#e0e0e0"/>
    <path id="Rectangle_15" data-name="Rectangle 15" d="M6.992,0H114.728a6.992,6.992,0,0,1,6.992,6.992V33.908a0,0,0,0,1,0,0H0a0,0,0,0,1,0,0V6.992A6.992,6.992,0,0,1,6.992,0Z" transform="translate(36.081 189.673)" fill="#e0e0e0"/>
    <rect id="Rectangle_16" data-name="Rectangle 16" width="36.128" height="35.966" rx="6.992" transform="translate(78.492 112.579)" fill="#c1c1e0"/>
    <rect id="Rectangle_17" data-name="Rectangle 17" width="36.128" height="35.966" rx="6.992" transform="translate(121.672 112.579)" fill="#e0e0e0"/>
  </g>
  <g id="Group_1326" data-name="Group 1326" transform="translate(178.517 142.748)">
    <rect id="Rectangle_18" data-name="Rectangle 18" width="73.255" height="72.926" rx="14.176" fill="#fff"/>
    <g id="Group_1325" data-name="Group 1325" transform="translate(7.996 10.246)">
      <g id="Group_1324" data-name="Group 1324">
        <path id="Path_73" data-name="Path 73" d="M2.749,0H47.624a2.749,2.749,0,0,1,2.749,2.749V32.844a2.749,2.749,0,0,1-2.749,2.749H2.749A2.749,2.749,0,0,1,0,32.844V2.749A2.749,2.749,0,0,1,2.749,0Z" transform="translate(3.445)" fill="#daa095"/>
        <path id="Path_72" data-name="Path 72" d="M1.619,0H27.355a1.619,1.619,0,0,1,1.619,1.619V42.136a1.619,1.619,0,0,1-1.619,1.619H1.619A1.619,1.619,0,0,1,0,42.136V1.619A1.619,1.619,0,0,1,1.619,0Z" transform="translate(50.509 3.309) rotate(90)" fill="#f7d3c7" opacity="0.4"/>
        <rect id="Rectangle_21" data-name="Rectangle 21" width="57.263" height="3.95" rx="1.975" transform="translate(0 35.592)" fill="#31b09f"/>
        <rect id="Rectangle_22" data-name="Rectangle 22" width="57.263" height="3.95" rx="1.975" transform="translate(0 35.592)" fill="#daa095"/>
        <path id="Rectangle_23" data-name="Rectangle 23" d="M0,0H14.37a0,0,0,0,1,0,0V0a1.6,1.6,0,0,1-1.6,1.6H1.6A1.6,1.6,0,0,1,0,0V0A0,0,0,0,1,0,0Z" transform="translate(21.446 35.592)" fill="#1a003d" opacity="0.4"/>
        <circle id="Ellipse_2" data-name="Ellipse 2" cx="0.63" cy="0.63" r="0.63" transform="translate(28.001 1.011)" fill="#2c3955"/>
      </g>
      <rect id="Rectangle_24" data-name="Rectangle 24" width="30.321" height="5.845" rx="2.923" transform="translate(13.471 46.588)" fill="#daa095"/>
    </g>
  </g>
  <g id="Group_1336" data-name="Group 1336" transform="translate(43.562 163.257)">
    <rect id="Rectangle_25" data-name="Rectangle 25" width="87.018" height="86.626" rx="16.84" fill="#fff"/>
    <g id="Group_1335" data-name="Group 1335" transform="translate(20.731 8.204)">
      <rect id="Rectangle_26" data-name="Rectangle 26" width="36.018" height="6.943" rx="3.472" transform="translate(4.769 59.308)" fill="#daa095"/>
      <g id="Group_1334" data-name="Group 1334">
        <path id="Path_71" data-name="Path 71" d="M0,0H40.913V40.913H0Z" transform="translate(2.322 10.191)" fill="#f7d3c7"/>
        <rect id="Rectangle_28" data-name="Rectangle 28" width="45.556" height="9.16" transform="translate(0 10.191)" fill="#daa095"/>
        <g id="Group_1331" data-name="Group 1331" transform="translate(10.49)">
          <g id="Group_1327" data-name="Group 1327" transform="translate(0 0)">
            <path id="Path_23" data-name="Path 23" d="M303.585,514.6c-6.616,0-10.984-1.975-11.686-5.285-.48-2.26.985-4.508,3.729-5.727a4.413,4.413,0,0,1,3.939.06c3.64,1.884,5.1,8.681,5.249,9.451a1.255,1.255,0,0,1-1.231,1.5Zm-6.015-8.937a2.27,2.27,0,0,0-.923.218c-1.617.718-2.517,1.862-2.294,2.913.315,1.484,2.789,2.979,7.617,3.252-.694-2.4-1.983-5.355-3.559-6.17A1.809,1.809,0,0,0,297.57,505.667Z" transform="translate(-291.808 -503.158)" fill="#926f73"/>
          </g>
          <g id="Group_1328" data-name="Group 1328" transform="translate(4.179 9.723)">
            <rect id="Rectangle_29" data-name="Rectangle 29" width="17.248" height="2.51" transform="translate(0 16.004) rotate(-68.099)" fill="#926f73"/>
          </g>
          <g id="Group_1329" data-name="Group 1329" transform="translate(11.546)">
            <path id="Path_24" data-name="Path 24" d="M307.625,514.6a1.255,1.255,0,0,1-1.231-1.5c.154-.769,1.608-7.567,5.248-9.451a4.411,4.411,0,0,1,3.939-.06c2.745,1.219,4.209,3.467,3.729,5.727C318.609,512.628,314.24,514.6,307.625,514.6Zm6.014-8.937a1.806,1.806,0,0,0-.841.213c-1.576.814-2.866,3.773-3.559,6.169,4.829-.273,7.3-1.768,7.617-3.252.223-1.051-.677-2.195-2.293-2.913A2.276,2.276,0,0,0,313.639,505.667Z" transform="translate(-306.37 -503.158)" fill="#926f73"/>
          </g>
          <g id="Group_1330" data-name="Group 1330" transform="translate(11.636 9.723)">
            <rect id="Rectangle_30" data-name="Rectangle 30" width="2.51" height="17.248" transform="translate(0 0.936) rotate(-21.897)" fill="#926f73"/>
          </g>
        </g>
        <g id="Group_1332" data-name="Group 1332" transform="translate(20.317 11.313)">
          <rect id="Rectangle_31" data-name="Rectangle 31" width="3.44" height="40.592" fill="#926f73"/>
        </g>
        <g id="Group_1333" data-name="Group 1333" transform="translate(1.741 30.577)">
          <rect id="Rectangle_32" data-name="Rectangle 32" width="41.968" height="2.752" fill="#926f73"/>
        </g>
      </g>
    </g>
  </g>
  <g id="Group_1339" data-name="Group 1339" transform="translate(99.741 78.542)">
    <rect id="Rectangle_33" data-name="Rectangle 33" width="96.511" height="96.077" rx="18.677" fill="#fff"/>
    <g id="Group_1338" data-name="Group 1338" transform="translate(10.672 13.358)">
      <rect id="Rectangle_34" data-name="Rectangle 34" width="39.948" height="7.701" rx="3.85" transform="translate(17.61 61.519)" fill="#daa095"/>
      <g id="Group_1337" data-name="Group 1337">
        <rect id="Rectangle_35" data-name="Rectangle 35" width="15.561" height="21.751" transform="translate(75.167 15.381) rotate(135)" fill="#926f73"/>
        <rect id="Rectangle_36" data-name="Rectangle 36" width="15.561" height="21.751" transform="translate(15.381) rotate(45)" fill="#926f73"/>
        <path id="Path_25" data-name="Path 25" d="M398.479,375.492a8.467,8.467,0,0,1-16.935,0H367.819v52.236h44.209V375.492Z" transform="translate(-352.428 -375.492)" fill="#daa095"/>
        <rect id="Rectangle_37" data-name="Rectangle 37" width="44.209" height="2.501" transform="translate(15.391 49.735)" fill="#f7d3c7"/>
        <path id="Path_26" data-name="Path 26" d="M393.136,385.726a10.234,10.234,0,0,0,10.234-10.234H401.6a8.467,8.467,0,0,1-16.935,0H382.9A10.234,10.234,0,0,0,393.136,385.726Z" transform="translate(-355.552 -375.492)" fill="#f7d3c7"/>
        <path id="Path_27" data-name="Path 27" d="M402.065,375.492a8.467,8.467,0,0,1-8.467,8.467,8.706,8.706,0,0,1-4-1,8.362,8.362,0,0,1-4.47-7.466Z" transform="translate(-356.014 -375.492)" fill="#926f73"/>
        <rect id="Rectangle_38" data-name="Rectangle 38" width="44.209" height="7.386" transform="translate(15.391 20.715)" fill="#926f73"/>
        <circle id="Ellipse_3" data-name="Ellipse 3" cx="10.711" cy="10.711" r="10.711" transform="translate(26.873 13.554)" fill="#c9c9c9"/>
        <path id="Path_28" data-name="Path 28" d="M394.286,409.634l3.178,1.671a.951.951,0,0,0,1.379-1l-.607-3.539a.95.95,0,0,1,.273-.841l2.571-2.506a.95.95,0,0,0-.527-1.621L397,401.279a.948.948,0,0,1-.715-.519l-1.589-3.22a.951.951,0,0,0-1.7,0l-1.589,3.22a.947.947,0,0,1-.715.519l-3.554.517a.95.95,0,0,0-.526,1.621l2.571,2.506a.953.953,0,0,1,.274.841l-.607,3.539a.951.951,0,0,0,1.379,1l3.178-1.671A.954.954,0,0,1,394.286,409.634Z" transform="translate(-356.26 -379.948)" fill="#926f73"/>
      </g>
    </g>
  </g>
  <g id="Group_1342" data-name="Group 1342" transform="translate(50.608 106.664)">
    <path id="Path_29" data-name="Path 29" d="M321.268,427.93H281.381a73.791,73.791,0,0,1-1.9,9.149,40.355,40.355,0,0,1-2.174,6.14,4.628,4.628,0,1,1-2.632-2.134c.133-.317.274-.668.42-1.056a57.452,57.452,0,0,0,2.424-8.917q.314-1.608.55-3.183h-1.081a6.045,6.045,0,0,0-4.286,1.783L269,433.449l-2.7,2.72-3.451,3.474a8.307,8.307,0,0,0,0,11.71l9.864,9.93a6.039,6.039,0,0,0,4.286,1.784h44.275a6.043,6.043,0,0,0,6.043-6.043V433.972A6.042,6.042,0,0,0,321.268,427.93Z" transform="translate(-260.428 -403.389)" fill="#daa095"/>
    <g id="Group_1340" data-name="Group 1340" transform="translate(28.237 29.567)">
      <path id="Path_30" data-name="Path 30" d="M296.04,440.26a5.742,5.742,0,0,1,.473-2.313,6.167,6.167,0,0,1,1.3-1.909,6.04,6.04,0,0,1,1.945-1.3,6.252,6.252,0,0,1,2.452-.473,6.387,6.387,0,0,1,2.47.473,6,6,0,0,1,1.962,1.3,6.154,6.154,0,0,1,1.3,1.909,5.729,5.729,0,0,1,.473,2.313,5.954,5.954,0,0,1-1.77,4.239,6.119,6.119,0,0,1-1.962,1.279,6.373,6.373,0,0,1-2.47.473,6.238,6.238,0,0,1-2.452-.473,6.167,6.167,0,0,1-1.945-1.279,5.949,5.949,0,0,1-1.769-4.239Zm3.749,0a2.507,2.507,0,0,0,.7,1.857,2.455,2.455,0,0,0,3.433,0,2.81,2.81,0,0,0,0-3.714,2.453,2.453,0,0,0-3.433,0A2.509,2.509,0,0,0,299.789,440.26Zm1.627,15.854,13.7-20.459a1.667,1.667,0,0,1,2.314-.457h0a1.667,1.667,0,0,1,.456,2.311l-13.7,20.459a1.666,1.666,0,0,1-2.313.457h0A1.667,1.667,0,0,1,301.416,456.114Zm9.479-2.751a5.729,5.729,0,0,1,.473-2.313,6.154,6.154,0,0,1,1.3-1.909,6.029,6.029,0,0,1,1.944-1.3,6.252,6.252,0,0,1,2.452-.473,6.384,6.384,0,0,1,2.47.473,6.008,6.008,0,0,1,1.962,1.3,6.167,6.167,0,0,1,1.3,1.909,5.742,5.742,0,0,1,.473,2.313,5.949,5.949,0,0,1-1.769,4.239,6.131,6.131,0,0,1-1.962,1.279,6.37,6.37,0,0,1-2.47.473,6.238,6.238,0,0,1-2.452-.473,6.154,6.154,0,0,1-1.944-1.279,5.954,5.954,0,0,1-1.77-4.239Zm3.749,0a2.508,2.508,0,0,0,.7,1.857,2.455,2.455,0,0,0,3.433,0,2.81,2.81,0,0,0,0-3.714,2.453,2.453,0,0,0-3.433,0A2.508,2.508,0,0,0,314.644,453.363Z" transform="translate(-296.04 -434.269)" fill="#c9c9c9"/>
    </g>
    <g id="Group_1341" data-name="Group 1341" transform="translate(3.712)">
      <path id="Path_31" data-name="Path 31" d="M281.313,402.054c-1.864-4.194-4.869-5.075-7.062-5.075-2.267,0-5.377.939-7.326,5.406A28.366,28.366,0,0,0,265.11,413.5a67,67,0,0,0,2.153,16.258q.18.684.374,1.347a31.929,31.929,0,0,0,2.378,6.112c.064.12.128.235.194.348,1.24,2.152,2.563,3.2,4.041,3.2,1.819,0,3.016-1.941,3.759-3.4.09-.178.182-.363.272-.555a4.64,4.64,0,0,0-2.632-2.134,9.791,9.791,0,0,1-1.512,2.705,7.722,7.722,0,0,1-1.672-2.566c-.053-.111-.105-.228-.16-.349a40.948,40.948,0,0,1-2.339-7.428c-.029-.128-.059-.258-.087-.387-1.51-6.858-1.907-13.958-1.061-18.994.825-4.914,2.651-7.406,5.432-7.406.821,0,3.322,0,4.676,4.838,1.082,3.858,1.108,9.845.117,16.43h3.307a64.783,64.783,0,0,0,.689-8.976A26.384,26.384,0,0,0,281.313,402.054Z" transform="translate(-265.11 -396.979)" fill="#c9c9c9"/>
      <path id="Path_32" data-name="Path 32" d="M285.1,427.93a73.8,73.8,0,0,1-1.9,9.149,40.358,40.358,0,0,1-2.174,6.14,4.641,4.641,0,0,0-2.632-2.134c.133-.317.274-.668.42-1.056a57.452,57.452,0,0,0,2.424-8.917q.314-1.608.549-3.183Z" transform="translate(-267.863 -403.389)" fill="#c9c9c9"/>
    </g>
  </g>
  <path id="Path_33" data-name="Path 33" d="M241.461,563.915a53.645,53.645,0,0,0-21.342-45.02c-4.993-3.683-10.612-6.467-15.513-10.271s-9.2-8.976-10-15.128c-7.191,7.957-9.3,19.642-7.261,30.17s7.792,20.018,14.667,28.248a110.09,110.09,0,0,0,45.7,32.37Z" transform="translate(-186.602 -330.696)" fill="#c9c9c9"/>
  <path id="Path_34" data-name="Path 34" d="M262.63,599.262c-1.133-17.652-11.446-33.423-23.311-46.541-6.31-6.977-13.66-14.81-12.786-24.177a36.476,36.476,0,0,0-5.163,36.6c6.024,14.092,20.152,22.672,33.432,30.324Z" transform="translate(-193.23 -337.955)" fill="#bdbdbd"/>
  <path id="Path_35" data-name="Path 35" d="M502.327,570.855c.1-2.439.121-4.978,1.212-7.161s3.637-3.87,5.952-3.1c3.077,1.027,3.519,5.129,3.4,8.371l12.346-10.735c2.274-1.977,4.624-4,7.472-4.982s6.352-.688,8.411,1.511c2.117,2.261,2.1,5.957.606,8.672s-4.163,4.586-6.942,5.956c-2.54,1.253-5.348,2.244-7.2,4.389s-2.143,5.974.265,7.467c2.734,1.694,6.723-.722,9.384,1.085,2.185,1.485,1.875,5.042.071,6.974s-4.519,2.655-7.082,3.294l-16.784,4.183c-3.084.768-12.391,4.881-15.238,3.065-2.774-1.769,1.247-9.606,1.907-12.479A90.272,90.272,0,0,0,502.327,570.855Z" transform="translate(-287.698 -342.96)" fill="#ffeee8"/>
</svg>
