<svg xmlns="http://www.w3.org/2000/svg" width="50" height="40" viewBox="0 0 46 40">
  <g id="Group_1475" data-name="Group 1475" transform="translate(-86 -757)">
    <g id="dashboard" transform="translate(101 757)">
      <path id="Dashboard-2" data-name="Dashboard" d="M12.034,15.043a3.009,3.009,0,1,1,3.009-3.009A3.012,3.012,0,0,1,12.034,15.043Zm-9.025,0a3.009,3.009,0,1,1,3.008-3.009A3.012,3.012,0,0,1,3.008,15.043Zm9.025-9.026a3.008,3.008,0,1,1,3.009-3.008A3.012,3.012,0,0,1,12.034,6.017Zm-9.025,0A3.008,3.008,0,1,1,6.017,3.008,3.012,3.012,0,0,1,3.008,6.017Z" transform="translate(0 0)" fill="#c9c9c9"/>
    </g>
    <text id="Sign_Up" data-name="Sign Up" transform="translate(86 790)" fill="#c9c9c9" font-size="12" font-family="Cairo-Regular, Cairo"><tspan x="0" y="0">Category</tspan></text>
  </g>
</svg>
